<svg width="16" height="16" fill="none" xmlns="http://www.w3.org/2000/svg">
  <path
    d="m8.429 3.257 1.332-2.22 3.436.429L14.5 3.638v2.683l-6.486 7.875L1.94 6.25l-.883-2.206 1.29-2.15L5.354.607 7.616 3.32l.45.54.363-.603z"
    fill="#fff" stroke="#fff"/>
  <path d="M7.9 3.095C6.7-2.521-2.591 1.904 1.76 7.602 6.112 13.3 8.4 15.49 8.4 15.49" stroke="#fff"/>
  <path d="M7.894 3.095c1.2-5.616 10.836-1.191 6.485 4.507C10.027 13.3 7.7 15.5 7.7 15.5" stroke="#fff"/>
  <path d="M7.391 2.708h1.013l-.02.533H7.39v-.533z" fill="#fff"/>
</svg>
